<?xml version="1.0" encoding="utf-8"?>
<!-- Generator: Adobe Illustrator 28.1.0, SVG Export Plug-In . SVG Version: 6.00 Build 0)  -->
<svg version="1.1" id="Layer_1" xmlns="http://www.w3.org/2000/svg" xmlns:xlink="http://www.w3.org/1999/xlink" x="0px" y="0px"
	 viewBox="0 0 365.4 365.4" style="enable-background:new 0 0 365.4 365.4;" xml:space="preserve">
<style type="text/css">
	.st0{fill:#231F20;}
</style>
<g>
	<path class="st0" d="M180.8,282.1c-60.5,0-118.6-30.2-172.6-89.8l-7.9-8.7l7.3-9.3c2.8-3.5,69-86.7,167.9-90.7
		c63.1-2.6,124.1,27.6,181.5,89.7l8.2,8.9l-7.6,9.4c-0.7,0.9-18,22.3-47.5,44.1c-39.4,29.1-82.2,45.2-123.8,46.4
		C184.5,282,182.6,282.1,180.8,282.1z M32.1,182.5c49.1,50.8,100.7,75.7,153.5,74.1c71.5-2.1,127-52.3,147.4-73.6
		c-50.6-51.4-103.3-76.4-156.6-74.2C105.7,111.7,51.8,161.5,32.1,182.5z"/>
</g>
<g>
	<circle class="st0" cx="182.6" cy="182.7" r="53.5"/>
</g>
<g>
	
		<rect x="14.4" y="160.7" transform="matrix(0.7071 -0.7071 0.7071 0.7071 -75.6404 182.7223)" class="st0" width="336.8" height="44"/>
</g>
</svg>
