<?xml version="1.0" encoding="utf-8"?>
<!-- Generator: Adobe Illustrator 28.1.0, SVG Export Plug-In . SVG Version: 6.00 Build 0)  -->
<svg version="1.1" id="Layer_1" xmlns="http://www.w3.org/2000/svg" xmlns:xlink="http://www.w3.org/1999/xlink" x="0px" y="0px"
	 viewBox="0 0 184.9 156" style="enable-background:new 0 0 184.9 156;" xml:space="preserve">
<style type="text/css">
	.st0{fill:#FFFFFF;}
</style>
<g>
	<path class="st0" d="M150,135.5V49.5h-20.8v86.1h-10V80.1H98.4v55.4h-10v-67H67.6v67h-10V89.3H36.8v46.2H22.6v3.9h14.2h20.8h10
		h20.8h10h20.8h10H150h12.3v-3.9H150z M40.7,135.5V93.2h13.1v42.4H40.7z M71.5,135.5V72.4h13.1v63.1H71.5z M102.3,135.5V84h13.1
		v51.6H102.3z M133.1,135.5V53.3h13.1v82.2H133.1z"/>
	<polygon class="st0" points="81.1,32.7 109.8,56.1 146.2,19.8 146.2,35.2 150,35.2 150,13.3 128.1,13.3 128.1,17.1 143.4,17.1 
		109.6,50.9 80.9,27.6 33,72.2 35.6,75 	"/>
</g>
</svg>
