<?xml version="1.0" encoding="utf-8"?>
<!-- Generator: Adobe Illustrator 28.1.0, SVG Export Plug-In . SVG Version: 6.00 Build 0)  -->
<svg version="1.1" id="Layer_1" xmlns="http://www.w3.org/2000/svg" xmlns:xlink="http://www.w3.org/1999/xlink" x="0px" y="0px"
	 viewBox="0 0 184.9 156" style="enable-background:new 0 0 184.9 156;" xml:space="preserve">
<style type="text/css">
	.st0{fill:#FFFFFF;}
</style>
<g>
	<path class="st0" d="M157,34.2c0-2.4-0.9-4.6-2.6-6.3l-8.6-8.6c-1.7-1.7-3.9-2.6-6.3-2.6c-2.4,0-4.6,0.9-6.3,2.6l-19,19l0,0l0,0
		l-4.8,4.8l0,0l0,0L90.6,61.8c-3.6-3.8-5.6-9-5.3-14.3c0.4-8.3-2.8-16.4-8.6-22.3c-8.7-8.7-22.1-11.1-33.3-5.9
		c-0.5,0.2-0.9,0.7-1,1.3c-0.1,0.6,0.1,1.1,0.5,1.5l20.7,20.7l-11,11L31.8,33.2c-0.4-0.4-1-0.6-1.5-0.5c-0.6,0.1-1,0.5-1.3,1
		c-5,10.7-3.1,23.4,4.7,32.1c1.5,1.6,3.1,3.1,4.8,4.3l0,0c0.2,0.2,0.4,0.3,0.6,0.4c5.3,3.6,11.6,5.4,18.1,5.1
		c5.2-0.3,10.3,1.7,14.1,5.3l-26.5,26.5l0,0l0,0c0,0,0,0.1-0.1,0.1c0,0.1-0.1,0.1-0.1,0.2s-0.1,0.1-0.1,0.2c0,0,0,0.1-0.1,0.1l0,0
		l0,0l-9.8,22.8l0,0L30.2,141c-0.3,0.7-0.1,1.4,0.4,1.9c0.3,0.3,0.8,0.5,1.2,0.5c0.2,0,0.5,0,0.7-0.1L65.4,129l0.1-0.1
		c0.1,0,0.1-0.1,0.2-0.1s0.1-0.1,0.2-0.1c0,0,0.1,0,0.1-0.1l0,0l0,0L97.6,97l28.5,28.4c0.3,0.3,0.8,0.5,1.2,0.5c0.1,0,0.3,0,0.4-0.1
		c0.6-0.2,1.1-0.6,1.2-1.2c0.4-1.3,1-2.4,2-3.3c0.9-0.9,2-1.6,3.3-2c0.6-0.2,1-0.7,1.2-1.2c0.2-0.6,0-1.2-0.5-1.7L106.4,88l2.7-2.7
		l37.4,37.4c3.9,3.9,3.9,10.3,0,14.2c-3.9,3.9-10.3,3.9-14.2,0l-33.5-33.5c-0.7-0.7-1.8-0.7-2.5,0s-0.7,1.8,0,2.5l33.5,33.5
		c2.6,2.6,6.1,4,9.6,4s6.9-1.3,9.6-4c5.3-5.3,5.3-13.9,0-19.2L111.8,83l42.5-42.5C156,38.8,157,36.6,157,34.2z M129.3,60.6L113,44.3
		l2.3-2.3l16.3,16.3L129.3,60.6z M47.1,21.6c9.4-3.3,19.9-0.9,27,6.2c0.7,0.7,1.4,1.5,2.1,2.3L65.9,40.4L47.1,21.6z M36.3,63.5
		c-6.3-7.1-8.2-17-5.1-25.9L50,56.4L39.6,66.7C38.4,65.7,37.3,64.7,36.3,63.5z M57,72.2c-5.1,0.3-10.1-1-14.5-3.5L78.2,33
		c2.5,4.3,3.8,9.3,3.5,14.4c-0.3,6.3,2,12.4,6.3,16.9L73.8,78.5C69.3,74.2,63.2,71.9,57,72.2z M110.5,46.8l16.3,16.3l-18.7,18.7l0,0
		l0,0l-43.3,43.3l-16.3-16.3L110.5,46.8z M42.5,135.3l-4.2-4.2l8.3-19.3L61.8,127L42.5,135.3z M36.9,134.6l2.2,2.2l-3.8,1.7
		L36.9,134.6z M130.8,117.3c-0.8,0.5-1.6,1.1-2.2,1.7c-0.7,0.7-1.3,1.4-1.7,2.2l-26.7-26.6l4-4L130.8,117.3z M134.1,55.8l-16.3-16.3
		l17.8-17.8c1-1,2.4-1.6,3.8-1.6s2.8,0.6,3.8,1.6l8.6,8.6c1,1,1.6,2.4,1.6,3.8s-0.6,2.8-1.6,3.8L134.1,55.8z"/>
	<path class="st0" d="M72.9,47.5c-0.3-0.3-0.8-0.5-1.2-0.5s-0.9,0.2-1.2,0.5L56.9,61c-0.7,0.7-0.7,1.8,0,2.5l3.6,3.6
		c0.3,0.3,0.8,0.5,1.2,0.5s0.9-0.2,1.2-0.5l4.2-4.2l0,0l0,0l5.2-5.2l0,0l0,0l4.2-4.2c0.7-0.7,0.7-1.8,0-2.5L72.9,47.5z M71.7,51.2
		l1.1,1.1L71.1,54L70,52.9L71.7,51.2z M65.9,59.2l-1.1-1.1l2.7-2.7l1.1,1.1L65.9,59.2z M61.7,63.3l-1.1-1.1l1.7-1.7l1.1,1.1
		L61.7,63.3z"/>
	<path class="st0" d="M143.7,134.3c2.5-2.5,2.5-6.5,0-8.9c-1.2-1.2-2.8-1.9-4.5-1.9s-3.3,0.7-4.5,1.9c-1.2,1.2-1.9,2.8-1.9,4.5
		s0.7,3.3,1.9,4.5s2.8,1.8,4.5,1.8S142.5,135.5,143.7,134.3z M137.3,131.8c-0.5-0.5-0.8-1.2-0.8-2s0.3-1.5,0.8-2s1.2-0.8,2-0.8
		s1.5,0.3,2,0.8s0.8,1.2,0.8,2s-0.3,1.5-0.8,2C140.2,132.9,138.3,132.9,137.3,131.8z"/>
</g>
</svg>
