<?xml version="1.0" encoding="utf-8"?>
<!-- Generator: Adobe Illustrator 28.1.0, SVG Export Plug-In . SVG Version: 6.00 Build 0)  -->
<svg version="1.1" id="Layer_1" xmlns="http://www.w3.org/2000/svg" xmlns:xlink="http://www.w3.org/1999/xlink" x="0px" y="0px"
	 viewBox="0 0 184.9 156" style="enable-background:new 0 0 184.9 156;" xml:space="preserve">
<style type="text/css">
	.st0{fill:#FFFFFF;}
</style>
<g>
	<path class="st0" d="M124.4,23.2c-9.2-8.8-21.3-13.3-34.1-12.7c-23.5,1.1-42.4,19.6-44,43.1c-1,15,5.4,29.6,17.1,39.1
		c7.2,5.9,11.4,14.6,11.4,23.9v6.8c0,3,1.7,5.6,4.2,6.9v8.3c0,3.9,3.1,7,7,7h12.9c3.9,0,7-3.1,7-7v-8.3c2.5-1.3,4.2-3.9,4.2-6.9
		v-6.8c0-9.4,4.1-18.1,11.4-23.9c10.9-8.8,17.2-21.9,17.2-36C138.7,43.9,133.6,32,124.4,23.2z M102.7,131.1v7.5
		c0,2.1-1.7,3.8-3.8,3.8H86c-2.1,0-3.8-1.7-3.8-3.8v-7.5h0.3h19.8H102.7z M106.9,123.4c0,2.5-2.1,4.6-4.6,4.6H82.5
		c-2.5,0-4.6-2.1-4.6-4.6v-6.8c0-0.7,0-1.5-0.1-2.2H107c0,0.7-0.1,1.5-0.1,2.2V123.4z M119.5,90.2c-6.6,5.3-10.8,12.8-12.1,21H77.5
		c-1.3-8.2-5.6-15.7-12.2-21c-10.9-8.8-16.8-22.4-15.9-36.4c1.4-21.9,19-39.1,40.9-40.1c0.7,0,1.4,0,2.1,0
		c11.1,0,21.6,4.2,29.7,11.9c8.6,8.2,13.3,19.3,13.3,31.1C135.5,69.7,129.7,81.9,119.5,90.2z"/>
	<path class="st0" d="M118.4,51.7c0-2.8-1.7-5.3-4.1-6.5v-0.8c0-3.8-2.6-6.9-6-7.9c-0.7-4.2-4.3-7.5-8.7-7.5c-3,0-5.7,1.5-7.3,3.8
		c-1.6-2.3-4.3-3.8-7.3-3.8c-4.4,0-8.1,3.3-8.7,7.5c-3.5,0.9-6,4.1-6,7.9v0.8c-2.4,1.2-4.1,3.6-4.1,6.5c0,2.2,1,4.2,2.7,5.6
		c-1.6,1.3-2.7,3.3-2.7,5.6c0,2.8,1.7,5.3,4.1,6.5v0.8c0,3.8,2.6,6.9,6,7.9c0.7,4.2,4.3,7.5,8.7,7.5c3,0,5.7-1.5,7.3-3.8
		c1.6,2.3,4.3,3.8,7.3,3.8c4.4,0,8.1-3.3,8.7-7.5c3.5-0.9,6-4.1,6-7.9v-0.8c2.4-1.2,4.1-3.6,4.1-6.5c0-2.2-1-4.2-2.7-5.6
		C117.4,56,118.4,54,118.4,51.7z M85.1,82.3c-2.6,0-4.8-1.7-5.4-4.1c4-0.6,7-4,7-8.1h-3.2c0,2.7-2.2,5-5,5s-5-2.2-5-5V70h2.9v-3.2
		h-3c-2.2,0-4-1.8-4-4s1.8-4,4-4v-3.2c-2.2,0-4-1.8-4-4s1.8-4,4-4h3v-3.2h-2.9v-0.1c0-2.7,2.2-5,5-5s5,2.2,5,5h3.2
		c0-4.1-3.1-7.5-7-8.1c0.7-2.4,2.9-4.1,5.4-4.1c3.1,0,5.7,2.5,5.7,5.7v20.4v0.9v17.4C90.7,79.7,88.2,82.3,85.1,82.3z M111.3,58.9
		c2.2,0,4,1.8,4,4s-1.8,4-4,4h-3V70h2.9v0.1c0,2.7-2.2,5-5,5s-5-2.2-5-5H98c0,4.1,3.1,7.5,7,8.1c-0.7,2.4-2.9,4.1-5.4,4.1
		c-3.1,0-5.7-2.5-5.7-5.7V59.2v-0.9V38c0-3.1,2.5-5.7,5.7-5.7c2.6,0,4.8,1.7,5.4,4.1c-4,0.6-7,4-7,8.1h3.2c0-2.7,2.2-5,5-5
		s5,2.2,5,5v0.1h-2.9v3.2h3c2.2,0,4,1.8,4,4s-1.8,4-4,4V58.9z"/>
</g>
</svg>
