<?xml version="1.0" encoding="utf-8"?>
<!-- Generator: Adobe Illustrator 28.1.0, SVG Export Plug-In . SVG Version: 6.00 Build 0)  -->
<svg version="1.1" id="Layer_1" xmlns="http://www.w3.org/2000/svg" xmlns:xlink="http://www.w3.org/1999/xlink" x="0px" y="0px"
	 viewBox="0 0 184.9 156" style="enable-background:new 0 0 184.9 156;" xml:space="preserve">
<style type="text/css">
	.st0{fill:#FFFFFF;}
</style>
<g>
	<path class="st0" d="M144.4,79.3c4.7-2.6,7.8-7.5,7.8-13.2c0-6.4-4-11.8-9.6-14V49c0-8.4-6-15.5-14-17c-0.8-9.7-9-17.3-18.9-17.3
		c-7.6,0-14.1,4.5-17.1,10.9c-3.2-6.5-9.7-10.9-17.3-10.9c-9.9,0-18,7.6-18.9,17.3c-8,1.6-14,8.6-14,17v3.1c-5.6,2.2-9.6,7.6-9.6,14
		c0,5.7,3.2,10.6,7.8,13.2c-4.7,2.6-7.8,7.5-7.8,13.2c0,6.4,4,11.8,9.6,14v3.1c0,8.4,6,15.5,14,17c0.8,9.7,9,17.3,18.9,17.3
		c7.6,0,14.1-4.5,17.1-10.9c3,6.4,9.6,10.9,17.1,10.9c9.9,0,18-7.6,18.9-17.3c8-1.6,14-8.6,14-17v-3.2c5.6-2.2,9.6-7.6,9.6-14
		C152.2,86.9,149,81.9,144.4,79.3z M92.5,103.3c-12.6,0-23-10.3-23-22.9s10.3-23,23-23c12.6,0,22.9,10.3,22.9,23
		C115.4,93.1,105.1,103.3,92.5,103.3z M75.3,140.3c-7.8,0-14.2-5.9-15.2-13.4c9.3-0.2,16.9-7.9,16.9-17.3h-3.7
		c0,7.5-6.1,13.7-13.7,13.7s-13.7-6.1-13.7-13.7v-2.3c0.5,0.1,1.1,0.1,1.6,0.1h7.1v-3.7h-7.1c-6.2,0-11.4-5-11.4-11.4
		c0-6.3,5-11.4,11.4-11.4v-3.7c-6.2,0-11.4-5-11.4-11.4s5-11.4,11.4-11.4h7.1v-3.7h-7.1c-0.5,0-1.1,0-1.6,0.1v-2.3
		c0-7.5,6.1-13.7,13.7-13.7s13.7,6.1,13.7,13.7H77c0-9.4-7.6-17.1-16.9-17.3c1-7.5,7.4-13.4,15.2-13.4c8.4,0,15.3,6.9,15.3,15.3
		v20.2c-13.8,0.9-24.8,12.5-24.8,26.6s11,25.5,24.8,26.6V125C90.7,133.5,83.7,140.3,75.3,140.3z M137.2,103.8h-7.1v3.7h7.1
		c0.5,0,1.1,0,1.6-0.1v2.3c0,7.5-6.1,13.7-13.7,13.7s-13.7-6.1-13.7-13.7h-3.7c0,9.4,7.6,17.1,16.9,17.3c-1,7.5-7.4,13.4-15.2,13.4
		c-8.4,0-15.3-6.9-15.3-15.3v-18.1c13.8-0.9,24.7-12.5,24.7-26.6s-11-25.5-24.7-26.6V33.7c0-8.4,6.9-15.3,15.3-15.3
		c7.8,0,14.2,5.9,15.2,13.4c-9.3,0.2-16.9,7.9-16.9,17.3h3.7c0-7.5,6.1-13.7,13.7-13.7c7.6,0,13.7,6.1,13.7,13.7v2.3
		c-0.5-0.1-1.1-0.1-1.6-0.1h-7.1v3.7h7.1c6.2,0,11.4,5,11.4,11.4s-5,11.4-11.4,11.4v3.7c6.2,0,11.4,5,11.4,11.4
		C148.5,98.9,143.5,103.8,137.2,103.8z"/>
	<polygon class="st0" points="90.7,79.6 82.8,87.5 85.4,90.1 94.3,81.2 94.3,64.1 90.7,64.1 	"/>
</g>
</svg>
