<?xml version="1.0" encoding="utf-8"?>
<!-- Generator: Adobe Illustrator 28.1.0, SVG Export Plug-In . SVG Version: 6.00 Build 0)  -->
<svg version="1.1" id="Layer_1" xmlns="http://www.w3.org/2000/svg" xmlns:xlink="http://www.w3.org/1999/xlink" x="0px" y="0px"
	 viewBox="0 0 184.9 156" style="enable-background:new 0 0 184.9 156;" xml:space="preserve">
<style type="text/css">
	.st0{fill:#FFFFFF;}
</style>
<g>
	<path class="st0" d="M146.9,79.6c0-32.1-26.1-58.3-58.3-58.3S30.4,47.4,30.4,79.6c0,16.4,6.9,31.9,18.9,42.9l-7.8,8.9
		c-1.2,1.4-1.5,3.2-0.7,4.9c0.7,1.6,2.3,2.7,4.2,2.7H132c1.8,0,3.4-1,4.2-2.7c0.7-1.7,0.5-3.5-0.7-4.9l-7.6-8.7
		C140,111.7,146.9,96.1,146.9,79.6z M35.2,79.6c0-29.5,24-53.4,53.4-53.4s53.4,24,53.4,53.4c0,15.5-6.7,30.2-18.4,40.4h-70
		C41.9,109.8,35.2,95.1,35.2,79.6z M45.5,134.2l8.1-9.3h69.6l8.1,9.3H45.5z"/>
	<path class="st0" d="M55.1,86.6c0-0.4-0.1-0.8-0.2-1.2l7-6.1c0.5,0.2,1.1,0.4,1.7,0.4c0.2,0,0.4,0,0.5-0.1l12.1,18.9
		c-0.4,0.7-0.7,1.5-0.7,2.3c0,2.4,2,4.4,4.4,4.4c2.4,0,4.4-2,4.4-4.4c0-1.1-0.4-2.1-1.1-2.8l15.1-33.8l7.9,16.8
		c-0.5,0.7-0.7,1.5-0.7,2.4c0,2.4,2,4.4,4.4,4.4c2.4,0,4.4-2,4.4-4.4c0-2.4-2-4.4-4.4-4.4c-0.1,0-0.3,0-0.4,0l-7.9-16.7
		c0.6-0.7,1-1.7,1-2.7c0-2.4-1.9-4.3-4.3-4.4l0-0.1l0,0.1c-2.4,0-4.3,2-4.3,4.4c0,1.1,0.4,2.1,1.1,2.8L79.9,96.4c-0.2,0-0.3,0-0.4,0
		L67.4,77.6c0.4-0.7,0.7-1.5,0.7-2.3c0-2.4-2-4.4-4.4-4.4c-2.4,0-4.4,2-4.4,4.4c0,0.4,0.1,0.8,0.2,1.2l-7,6.1
		c-0.5-0.2-1.1-0.4-1.7-0.4c-2.4,0-4.4,2-4.4,4.4c0,2.4,2,4.4,4.4,4.4C53.1,90.9,55.1,89,55.1,86.6z"/>
	
		<rect x="125.1" y="58.8" transform="matrix(0.5704 -0.8214 0.8214 0.5704 4.3945 129.8406)" class="st0" width="2.4" height="3.9"/>
	<rect x="118.8" y="66" transform="matrix(0.5705 -0.8213 0.8213 0.5705 -3.6493 128.8048)" class="st0" width="5" height="3.9"/>
	<rect x="113.1" y="74.2" transform="matrix(0.5705 -0.8213 0.8213 0.5705 -12.8708 127.643)" class="st0" width="5" height="3.9"/>
	<path class="st0" d="M35.2,34.5c0-1.2-0.8-2.3-2-2.6l-10.1-2.6L20.6,19c-0.3-1.2-1.3-2-2.6-2c-1.2,0-2.3,0.8-2.6,2l-2.5,10.3
		L2.8,31.9c-1.2,0.3-2,1.3-2,2.6c0,1.2,0.8,2.3,2,2.6l10.1,2.6l2.6,10.3c0.3,1.2,1.3,2,2.6,2c1.2,0,2.3-0.8,2.6-2l2.5-10.3L33.2,37
		C34.4,36.7,35.2,35.7,35.2,34.5z M21.9,34.9c-1.7,0.4-3,1.8-3.5,3.5L18,40.1l-0.4-1.6c-0.4-1.7-1.8-3.1-3.5-3.5l-1.8-0.5l1.8-0.5
		c1.7-0.4,3-1.8,3.5-3.5l0.4-1.6l0.4,1.6c0.4,1.7,1.8,3.1,3.5,3.5l1.8,0.5L21.9,34.9z"/>
	<path class="st0" d="M183,57.1l-10.1-2.6l-2.6-10.3c-0.3-1.2-1.3-2-2.6-2c-1.2,0-2.3,0.8-2.6,2l-2.5,10.3l-10.2,2.6
		c-1.2,0.3-2,1.3-2,2.6c0,1.2,0.8,2.3,2,2.6l10.1,2.6l2.6,10.3c0.3,1.2,1.3,2,2.6,2c1.2,0,2.3-0.8,2.6-2l2.5-10.3l10.2-2.6
		c1.2-0.3,2-1.3,2-2.6C184.9,58.5,184.1,57.4,183,57.1z M171.6,60.1c-1.7,0.4-3,1.8-3.5,3.5l-0.4,1.6l-0.4-1.6
		c-0.4-1.7-1.8-3.1-3.5-3.5l-1.8-0.5l1.8-0.5c1.7-0.4,3.1-1.8,3.5-3.5l0.4-1.6l0.4,1.6c0.4,1.7,1.8,3.1,3.5,3.5l1.8,0.5L171.6,60.1z
		"/>
	<path class="st0" d="M47.8,62.9c0.3,0.1,0.6,0.2,1,0.2c0.9,0,1.8-0.5,2.2-1.5c5.2-11.9,15.8-20.8,28.4-23.8
		c1.3-0.3,2.1-1.6,1.8-2.9c-0.3-1.3-1.6-2.1-2.9-1.8c-14.1,3.3-25.9,13.3-31.7,26.5C46,60.9,46.6,62.3,47.8,62.9z"/>
</g>
</svg>
