<?xml version="1.0" encoding="utf-8"?>
<!-- Generator: Adobe Illustrator 28.1.0, SVG Export Plug-In . SVG Version: 6.00 Build 0)  -->
<svg version="1.1" id="Layer_1" xmlns="http://www.w3.org/2000/svg" xmlns:xlink="http://www.w3.org/1999/xlink" x="0px" y="0px"
	 viewBox="0 0 184.9 156" style="enable-background:new 0 0 184.9 156;" xml:space="preserve">
<style type="text/css">
	.st0{fill:#FFFFFF;}
</style>
<g>
	<path class="st0" d="M173.4,78.2c0-10.5-8.4-19-18.8-19.3c-7.8-24.9-30.3-43.3-57.3-45.2l-3.5-2l-6.2-3.6C87,7.8,86.1,8.2,86.1,9v5
		c-25.9,2.7-47.2,20.8-54.8,44.9c-0.2,0-0.3,0-0.5,0c-10.7,0-19.3,8.7-19.3,19.3s8.7,19.3,19.3,19.3c0.2,0,0.3,0,0.5,0
		c8.1,25.7,31.8,44.5,59.9,45.3l2.6,1.5l6.2,3.6c0.7,0.4,1.5-0.1,1.5-0.9v-4.8c25.1-3.4,45.6-21.2,53-44.7
		C165,97.2,173.4,88.7,173.4,78.2z M16.5,78.2c0-7.9,6.4-14.4,14.4-14.4c7.9,0,14.4,6.4,14.4,14.4s-6.4,14.4-14.4,14.4
		C22.9,92.6,16.5,86.1,16.5,78.2z M101.6,137.2v-4.6c0-0.8-0.8-1.2-1.5-0.9l-6.2,3.6l-4.1,2.4c-25-1.4-45.9-18.2-53.4-41
		c7.2-2.1,12.7-8.4,13.7-16h7.9l3.4,2l6.2,3.6c0.7,0.4,1.5-0.1,1.5-0.9v-4.7h8.7v-5H69V71c0-0.8-0.8-1.2-1.5-0.9l-6.2,3.6l-3.4,2H50
		c-1-7.7-6.5-13.9-13.7-16c7.1-21.8,26.5-38,49.9-40.7v4.5c0,0.8,0.8,1.2,1.5,0.9l6.2-3.6l3.4-1.9c24.5,1.7,44.9,18.3,52.3,40.7
		c-7.7,1.9-13.6,8.3-14.6,16.3h-4.1V71c0-0.8-0.8-1.2-1.5-0.9l-6.2,3.6l-3.4,2h-11.5v5h11.5l3.4,2l6.2,3.6c0.7,0.4,1.5-0.1,1.5-0.9
		v-4.7h4.1c1,8,6.9,14.4,14.6,16.3C142.6,118,124.1,133.9,101.6,137.2z M154.1,92.6c-7.9,0-14.4-6.4-14.4-14.4s6.4-14.4,14.4-14.4
		c7.9,0,14.4,6.4,14.4,14.4S162,92.6,154.1,92.6z"/>
	<polygon class="st0" points="95.4,66.8 90.5,66.8 90.5,75.7 81.6,75.7 81.6,80.7 90.5,80.7 90.5,89.6 95.4,89.6 95.4,80.7 
		104.3,80.7 104.3,75.7 95.4,75.7 	"/>
</g>
</svg>
