<?xml version="1.0" encoding="utf-8"?>
<!-- Generator: Adobe Illustrator 19.0.0, SVG Export Plug-In . SVG Version: 6.00 Build 0)  -->
<svg version="1.1" id="Layer_1" xmlns="http://www.w3.org/2000/svg" xmlns:xlink="http://www.w3.org/1999/xlink" x="0px" y="0px"
	 viewBox="-358 269 75 75" style="enable-background:new -358 269 75 75;" xml:space="preserve">
<style type="text/css">
	.st0{fill:#DDDDDD;}
	.st1{fill:#231F20;}
</style>
<g>
	<path class="st0" d="M-304.8,289.7c-4.8-1.1-9.3-3.3-13.1-6.2c-0.5-0.4-1.3,0-1.3,0.7v26.2c-2.1-1.6-4.9-2.5-7.9-2.2
		c-4.9,0.6-8.9,4.6-9.4,9.5c-0.7,6.5,4.5,12,10.9,11.9c5.8-0.1,10.6-5.2,10.6-11.1c0-7.4,0-19.6,0-19.6c3.1,1.3,6.4,2.3,9.8,2.9
		c0.6,0.1,1.1-0.4,1.1-1v-10.3C-304,290.2-304.3,289.8-304.8,289.7z"/>
	<path class="st1" d="M-325.7,330.4c-3.2,0-6.3-1.4-8.5-3.7c-2.2-2.4-3.3-5.7-2.9-9c0.5-5.2,4.7-9.5,10-10.2
		c2.6-0.3,5.1,0.2,7.3,1.5v-24.9c0-0.6,0.3-1.1,0.9-1.4c0.5-0.3,1.2-0.2,1.6,0.2c3.7,3,8.2,5.1,12.8,6.1c0.8,0.2,1.3,0.8,1.3,1.6
		V301c0,0.5-0.2,1-0.6,1.3c-0.4,0.3-0.9,0.4-1.3,0.4c-3.1-0.5-6.1-1.4-9-2.5v18.5c0,6.3-5.2,11.7-11.3,11.8
		C-325.6,330.4-325.7,330.4-325.7,330.4z M-325.7,308.8c-0.4,0-0.8,0-1.3,0.1c-4.6,0.6-8.3,4.3-8.8,8.9c-0.3,2.9,0.6,5.7,2.6,7.9
		c1.9,2.1,4.7,3.3,7.6,3.3c5.4-0.1,9.9-4.8,9.9-10.4V298l1,0.4c3.1,1.3,6.4,2.3,9.7,2.8c0.1,0,0.2,0,0.2-0.1c0,0,0.1-0.1,0.1-0.2
		v-10.3c0-0.1-0.1-0.2-0.2-0.3l0,0c-4.8-1.1-9.4-3.3-13.3-6.4c0,0-0.1-0.1-0.1,0c-0.1,0-0.1,0.1-0.1,0.1v27.7l-1.1-0.9
		C-321.4,309.6-323.5,308.8-325.7,308.8z"/>
</g>
</svg>
