<?xml version="1.0" encoding="utf-8"?>
<!-- Generator: Adobe Illustrator 28.1.0, SVG Export Plug-In . SVG Version: 6.00 Build 0)  -->
<svg version="1.1" id="Layer_1" xmlns="http://www.w3.org/2000/svg" xmlns:xlink="http://www.w3.org/1999/xlink" x="0px" y="0px"
	 viewBox="0 0 171.2 130.2" style="enable-background:new 0 0 171.2 130.2;" xml:space="preserve">
<style type="text/css">
	.st0{fill:none;}
</style>
<line class="st0" x1="85.5" y1="22.4" x2="85.5" y2="130.2"/>
<line class="st0" x1="152.9" y1="112.2" x2="18.1" y2="112.2"/>
<g>
	<path d="M63.9,22.7c-3.7,4-7.6,7.8-11.6,11.7l2.6,6.2c0.7,1.6,1.2,2.9,1.7,3.7c0.4,0.7,0.7,1.4,1.1,1.7c0.4,0.4,0.6,0.6,1,0.7
		c0.4,0.1,0.9,0.2,1.6,0.4L60,48.5h-7.1l-4-11.4c-0.5,0.4-1.1,1-1.9,1.6c-0.7,0.7-1.5,1.5-2.2,2.2c-0.7,0.7-1.2,1.5-1.5,2
		c-0.2,0.5-0.5,0.9-0.5,1.2c-0.1,0.4-0.1,0.7-0.1,1.1c0,0.5,0.1,0.9,0.4,1.1s0.7,0.5,1.4,0.6l-0.4,1.4H36l-0.2-1.4
		c4.1-4.5,8.2-8.6,12.3-12.3l-2.7-6.3c-0.5-1.2-1-2.2-1.4-3c-0.4-0.6-0.6-1.2-1-1.6c-0.4-0.4-0.6-0.6-1.1-0.9
		c-0.4-0.2-1-0.4-1.7-0.4l0.4-1.4h7.1l3.7,10.7c0.9-0.9,1.9-1.7,2.6-2.6c0.9-0.9,1.4-1.6,1.7-2.1c0.4-0.5,0.6-1,0.7-1.4
		c0.1-0.4,0.2-0.9,0.2-1.4c0-1-0.6-1.6-1.9-1.7l0.4-1.4h8.1L63.9,22.7z"/>
</g>
<g>
	<path d="M91.3,35.7H78.9l1-4.4h12.4L91.3,35.7z"/>
</g>
<g>
	<path d="M136.6,46.3c-2.1,1.7-4.2,2.7-6.3,2.7s-3.1-1.2-3.1-3.9c0-1,0.1-2.2,0.5-3.6l-0.4-0.1c-3.5,5.1-6.7,7.7-9.7,7.7
		c-1.9,0-3.2-0.9-3.9-2.7h-0.2c-0.5,3-0.7,6.1-0.7,9.3v0.6c0,0.2,0,0.4,0,0.6l-0.2,1.6l-2.9,1.6H107l8.6-38.7h4.7l-3.2,14.5
		c-0.6,3-1,5-1,6c0,2.5,0.9,3.9,2.7,3.9s3.9-1.4,6-4c2.1-2.7,3.4-5.1,3.7-7.3l2.9-12.8h4.7l-4.5,20.3c-0.1,0.7-0.2,1.5-0.2,2
		c0,1.7,0.6,2.5,1.7,2.5c0.7,0,1.6-0.5,2.7-1.4L136.6,46.3z"/>
</g>
<g>
	<path d="M101.7,103h-8.5v0.2c2.6,1.9,3.9,4.5,3.9,8.1c0,3.9-1.4,7.5-4,10.7c-2.7,3.2-6.3,4.8-11.1,4.8c-2.9,0-5.2-0.9-6.8-2.7
		c-1.7-1.9-2.6-4.4-2.6-7.3c0-3.1,0.6-6,1.9-8.3c1.2-2.5,2.9-4.4,4.8-5.8c2-1.4,4.1-2.4,6.2-2.7c2.1-0.4,5.1-0.6,8.9-0.6h8
		L101.7,103z M89.7,103.1c-2.4,0-4.4,0.5-6,1.4c-1.6,1-3,2.5-4.2,4.8c-1.2,2.2-1.9,5.1-1.9,8.7c0,2.1,0.5,3.7,1.5,4.8
		c1,1.1,2.1,1.7,3.6,1.7c2.6,0,4.8-1.5,6.7-4.5c1.9-3,2.7-6.2,2.7-9.8C92.1,107.5,91.3,105.1,89.7,103.1z"/>
</g>
<g>
	<polygon points="147.9,78.4 24.5,78.4 25.3,73.9 148.8,73.9 	"/>
</g>
</svg>
