<?xml version="1.0" encoding="utf-8"?>
<!-- Generator: Adobe Illustrator 19.0.0, SVG Export Plug-In . SVG Version: 6.00 Build 0)  -->
<svg version="1.1" id="Layer_1" xmlns="http://www.w3.org/2000/svg" xmlns:xlink="http://www.w3.org/1999/xlink" x="0px" y="0px"
	 viewBox="-268 359 75 75" style="enable-background:new -268 359 75 75;" xml:space="preserve">
<style type="text/css">
	.st0{fill:#DDDDDD;}
	.st1{fill:#231F20;}
</style>
<g>
	<g>
		<path class="st0" d="M-251.3,432.9c-3.8,0-7.3-0.5-9.3-1.1c-3.1-0.7-5.5-3.1-5.9-5.7c-0.4-1.8,0.5-3.5,2.4-4.6
			c4.6-2.7,5.3-5.1,5.9-7.5c0.4-1.3,0.7-2.4,1.8-3.5c1.6-1.6,4-2.6,6.6-2.6c3.3,0,6.8,1.5,9.7,4c3.3,2.9,5.3,6.8,5.5,10.4
			c0,2.2-0.5,4.2-1.8,5.5C-240.4,432-246.8,432.9-251.3,432.9L-251.3,432.9z"/>
		<path class="st1" d="M-251.3,433.9c-4,0-7.6-0.6-9.6-1.1c-3.4-0.8-6.1-3.5-6.6-6.5c-0.4-2.2,0.6-4.2,2.9-5.6
			c4.4-2.7,4.9-4.9,5.4-6.9c0.4-1.4,0.8-2.7,2.1-4c1.8-1.8,4.5-2.9,7.3-2.9c3.5,0,7.2,1.5,10.3,4.3c3.5,3.1,5.6,7.2,5.8,11.1
			c0,2.7-0.7,4.9-2.1,6.2C-240.2,433.2-247.4,433.9-251.3,433.9z M-249.9,409c-2.3,0-4.4,0.8-5.9,2.3c-0.9,0.9-1.2,1.8-1.6,3
			c-0.6,2.6-1.5,5.2-6.3,8.1c-0.9,0.5-2.3,1.7-1.9,3.5c0.3,2.2,2.5,4.3,5.1,4.9c1.9,0.5,5.3,1.1,9.1,1.1c3.6,0,10.2-0.6,14.1-4.6
			c1-1,1.6-2.7,1.6-4.8c-0.2-3.3-2.1-7-5.1-9.7C-243.6,410.4-246.8,409-249.9,409z"/>
	</g>
</g>
<g>
	<g>
		<path class="st0" d="M-231,417.2c-1.3-3.1-3.5-6.2-6.2-8.4c-2-1.6-4.2-3.3-8-4.6c5.3-5.9,25.4-27.6,41-41.9
			c0.9-0.9,2.2-1.5,3.7-1.5c1.5,0,2.9,0.5,4.2,1.6c2.4,2,2.7,5.5,1.1,7.7C-211.7,394.8-226.5,412-231,417.2z"/>
		<path class="st1" d="M-231.4,419l-0.6-1.5c-1.3-3.1-3.4-6-5.9-8c-2-1.6-4.1-3.2-7.7-4.4l-1.5-0.5l1-1.1c0.2-0.3,23.3-25.7,41-41.9
			c1.1-1.1,2.7-1.7,4.3-1.7c1.7,0,3.4,0.7,4.9,1.9c2.7,2.3,3.3,6.3,1.2,9c-16.5,25-31.5,42.3-35.7,47L-231.4,419z M-243.5,403.7
			c3.1,1.2,5.1,2.8,6.9,4.2c2.3,1.9,4.4,4.5,5.9,7.4c5.2-5.9,19.2-22.5,34.5-45.7c1.4-1.9,1-4.8-0.9-6.4c-1.1-0.9-2.3-1.4-3.6-1.4
			c-1.1,0-2.2,0.4-2.9,1.2C-219.2,377.3-238.9,398.7-243.5,403.7z"/>
	</g>
</g>
</svg>
