<?xml version="1.0" encoding="utf-8"?>
<!-- Generator: Adobe Illustrator 28.1.0, SVG Export Plug-In . SVG Version: 6.00 Build 0)  -->
<svg version="1.1" id="Layer_1" xmlns="http://www.w3.org/2000/svg" xmlns:xlink="http://www.w3.org/1999/xlink" x="0px" y="0px"
	 viewBox="0 0 75 75" style="enable-background:new 0 0 75 75;" xml:space="preserve">
<style type="text/css">
	.st0{fill:none;stroke:#231F20;stroke-width:3;stroke-miterlimit:10;}
	.st1{fill:#E2E3E4;stroke:#231F20;stroke-width:3;stroke-miterlimit:10;}
</style>
<line class="st0" x1="23.4" y1="37.5" x2="57.8" y2="37.5"/>
<path class="st0" d="M57.8,17.9H45.1c-1.2,0-2.2,1-2.2,2.2v35c0,1.2,1,2.2,2.2,2.2h12.8"/>
<path class="st1" d="M61.4,24.1h-7.2c-1.4,0-2.6-1.2-2.6-2.6v-7.2c0-1.4,1.2-2.6,2.6-2.6h7.2c1.4,0,2.6,1.2,2.6,2.6v7.2
	C64,22.9,62.9,24.1,61.4,24.1z"/>
<path class="st1" d="M61.4,43.7h-7.2c-1.4,0-2.6-1.2-2.6-2.6v-7.2c0-1.4,1.2-2.6,2.6-2.6h7.2c1.4,0,2.6,1.2,2.6,2.6v7.2
	C64,42.5,62.9,43.7,61.4,43.7z"/>
<path class="st1" d="M61.4,63.3h-7.2c-1.4,0-2.6-1.2-2.6-2.6v-7.2c0-1.4,1.2-2.6,2.6-2.6h7.2c1.4,0,2.6,1.2,2.6,2.6v7.2
	C64,62.2,62.9,63.3,61.4,63.3z"/>
<path class="st1" d="M31.6,53.1H15.2c-2.3,0-4.2-1.9-4.2-4.2V26.1c0-2.3,1.9-4.2,4.2-4.2h16.4c2.3,0,4.2,1.9,4.2,4.2v22.9
	C35.8,51.3,33.9,53.1,31.6,53.1z"/>
</svg>
