<?xml version="1.0" encoding="utf-8"?>
<!-- Generator: Adobe Illustrator 28.1.0, SVG Export Plug-In . SVG Version: 6.00 Build 0)  -->
<svg version="1.1" id="Capa_1" xmlns="http://www.w3.org/2000/svg" xmlns:xlink="http://www.w3.org/1999/xlink" x="0px" y="0px"
	 viewBox="0 0 50 50" style="enable-background:new 0 0 50 50;" xml:space="preserve">
<style type="text/css">
	.st0{fill:#FFFFFF;}
</style>
<g>
	<path class="st0" d="M37.4,20.2c0,0.6,0.7,0.9,1.1,0.5l5.9-5.9c0.3-0.3,0.3-0.8,0-1.2l-5.9-5.9c-0.4-0.4-1.1-0.1-1.1,0.5v3H5.3v6.2
		h32.1V20.2z"/>
	<path class="st0" d="M38.5,29.3c-0.4-0.4-1.1-0.1-1.1,0.5v3H5.3v6.2h32.1v3c0,0.6,0.7,0.9,1.1,0.5l5.9-5.9c0.3-0.3,0.3-0.8,0-1.2
		L38.5,29.3z"/>
</g>
</svg>
