<?xml version="1.0" encoding="utf-8"?>
<!-- Generator: Adobe Illustrator 28.1.0, SVG Export Plug-In . SVG Version: 6.00 Build 0)  -->
<svg version="1.1" id="Capa_1" xmlns="http://www.w3.org/2000/svg" xmlns:xlink="http://www.w3.org/1999/xlink" x="0px" y="0px"
	 viewBox="0 0 50 50" style="enable-background:new 0 0 50 50;" xml:space="preserve">
<style type="text/css">
	.st0{fill:#FFFFFF;}
</style>
<g>
	<path class="st0" d="M29,20.5c0.7-0.9,1.7-1.4,2.8-1.4h0.6V20v2.7c0,0.6,0.7,0.9,1,0.5l5.6-5.6c0.3-0.3,0.3-0.8,0-1.1l-5.6-5.6
		c-0.4-0.4-1-0.1-1,0.5v2.8v0.7h-0.6c-2.4,0-4.6,1.1-6.1,2.9L24,20.1l2.7,3.3L29,20.5z"/>
	<path class="st0" d="M16.2,29.6c-0.7,0.9-1.7,1.4-2.8,1.4h-2.7v4.2h2.7c2.4,0,4.6-1.1,6.1-2.9l1.8-2.2l-2.7-3.4L16.2,29.6z"/>
	<path class="st0" d="M33.5,26.9c-0.4-0.4-1-0.1-1,0.5v2.8v0.9h-0.6c-1.1,0-2.1-0.5-2.8-1.4l-9.6-11.8c-1.5-1.8-3.8-2.9-6.1-2.9
		h-2.7v4.2h2.7c1.1,0,2.1,0.5,2.8,1.4l9.6,11.8c1.5,1.8,3.8,2.9,6.1,2.9h0.6V36v2.8c0,0.6,0.7,0.9,1,0.5l5.6-5.6
		c0.3-0.3,0.3-0.8,0-1.1L33.5,26.9z"/>
</g>
</svg>
